<svg id="visual" viewBox="0 0 900 600" width="900" height="600" xmlns="http://www.w3.org/2000/svg" xmlns:xlink="http://www.w3.org/1999/xlink" version="1.1"><rect x="0" y="0" width="900" height="600" fill="#001220"></rect><defs><linearGradient id="grad1_0" x1="33.3%" y1="0%" x2="100%" y2="100%"><stop offset="20%" stop-color="#4f4f4f" stop-opacity="1"></stop><stop offset="80%" stop-color="#4f4f4f" stop-opacity="1"></stop></linearGradient></defs><defs><linearGradient id="grad1_1" x1="33.3%" y1="0%" x2="100%" y2="100%"><stop offset="20%" stop-color="#4f4f4f" stop-opacity="1"></stop><stop offset="80%" stop-color="#3c3f43" stop-opacity="1"></stop></linearGradient></defs><defs><linearGradient id="grad1_2" x1="33.3%" y1="0%" x2="100%" y2="100%"><stop offset="20%" stop-color="#292f37" stop-opacity="1"></stop><stop offset="80%" stop-color="#3c3f43" stop-opacity="1"></stop></linearGradient></defs><defs><linearGradient id="grad1_3" x1="33.3%" y1="0%" x2="100%" y2="100%"><stop offset="20%" stop-color="#292f37" stop-opacity="1"></stop><stop offset="80%" stop-color="#16212b" stop-opacity="1"></stop></linearGradient></defs><defs><linearGradient id="grad1_4" x1="33.3%" y1="0%" x2="100%" y2="100%"><stop offset="20%" stop-color="#001220" stop-opacity="1"></stop><stop offset="80%" stop-color="#16212b" stop-opacity="1"></stop></linearGradient></defs><defs><linearGradient id="grad2_0" x1="0%" y1="0%" x2="66.7%" y2="100%"><stop offset="20%" stop-color="#4f4f4f" stop-opacity="1"></stop><stop offset="80%" stop-color="#4f4f4f" stop-opacity="1"></stop></linearGradient></defs><defs><linearGradient id="grad2_1" x1="0%" y1="0%" x2="66.7%" y2="100%"><stop offset="20%" stop-color="#3c3f43" stop-opacity="1"></stop><stop offset="80%" stop-color="#4f4f4f" stop-opacity="1"></stop></linearGradient></defs><defs><linearGradient id="grad2_2" x1="0%" y1="0%" x2="66.7%" y2="100%"><stop offset="20%" stop-color="#3c3f43" stop-opacity="1"></stop><stop offset="80%" stop-color="#292f37" stop-opacity="1"></stop></linearGradient></defs><defs><linearGradient id="grad2_3" x1="0%" y1="0%" x2="66.7%" y2="100%"><stop offset="20%" stop-color="#16212b" stop-opacity="1"></stop><stop offset="80%" stop-color="#292f37" stop-opacity="1"></stop></linearGradient></defs><defs><linearGradient id="grad2_4" x1="0%" y1="0%" x2="66.7%" y2="100%"><stop offset="20%" stop-color="#16212b" stop-opacity="1"></stop><stop offset="80%" stop-color="#001220" stop-opacity="1"></stop></linearGradient></defs><g transform="translate(900, 0)"><path d="M0 486.7C-55.8 452.4 -111.7 418.1 -161.1 389C-210.6 359.8 -253.6 335.9 -305.5 305.5C-357.3 275.1 -418 238.3 -449.7 186.3C-481.4 134.3 -484.1 67.1 -486.7 0L0 0Z" fill="#0d1a26"></path><path d="M0 389.4C-44.7 361.9 -89.3 334.5 -128.9 311.2C-168.4 287.9 -202.9 268.7 -244.4 244.4C-285.9 220.1 -334.4 190.6 -359.8 149C-385.1 107.4 -387.3 53.7 -389.4 0L0 0Z" fill="#202831"></path><path d="M0 292C-33.5 271.5 -67 250.9 -96.7 233.4C-126.3 215.9 -152.2 201.5 -183.3 183.3C-214.4 165 -250.8 143 -269.8 111.8C-288.8 80.6 -290.4 40.3 -292 0L0 0Z" fill="#32373d"></path><path d="M0 194.7C-22.3 181 -44.7 167.2 -64.4 155.6C-84.2 143.9 -101.4 134.3 -122.2 122.2C-142.9 110 -167.2 95.3 -179.9 74.5C-192.6 53.7 -193.6 26.9 -194.7 0L0 0Z" fill="#454749"></path><path d="M0 97.3C-11.2 90.5 -22.3 83.6 -32.2 77.8C-42.1 72 -50.7 67.2 -61.1 61.1C-71.5 55 -83.6 47.7 -89.9 37.3C-96.3 26.9 -96.8 13.4 -97.3 0L0 0Z" fill="#4f4f4f"></path></g><g transform="translate(0, 600)"><path d="M0 -486.7C62.2 -464.5 124.3 -442.3 168.8 -407.4C213.2 -372.5 240 -324.9 289.9 -289.9C339.9 -254.9 413 -232.5 449.7 -186.3C486.4 -140.1 486.6 -70 486.7 0L0 0Z" fill="#0d1a26"></path><path d="M0 -389.4C49.7 -371.6 99.4 -353.9 135 -325.9C170.6 -298 192 -259.9 231.9 -231.9C271.9 -203.9 330.4 -186 359.8 -149C389.1 -112 389.2 -56 389.4 0L0 0Z" fill="#202831"></path><path d="M0 -292C37.3 -278.7 74.6 -265.4 101.3 -244.5C127.9 -223.5 144 -195 173.9 -173.9C203.9 -152.9 247.8 -139.5 269.8 -111.8C291.8 -84 291.9 -42 292 0L0 0Z" fill="#32373d"></path><path d="M0 -194.7C24.9 -185.8 49.7 -176.9 67.5 -163C85.3 -149 96 -130 116 -116C135.9 -102 165.2 -93 179.9 -74.5C194.5 -56 194.6 -28 194.7 0L0 0Z" fill="#454749"></path><path d="M0 -97.3C12.4 -92.9 24.9 -88.5 33.8 -81.5C42.6 -74.5 48 -65 58 -58C68 -51 82.6 -46.5 89.9 -37.3C97.3 -28 97.3 -14 97.3 0L0 0Z" fill="#4f4f4f"></path></g></svg>